<svg width="308" height="308" viewBox="0 0 308 308" fill="none" xmlns="http://www.w3.org/2000/svg">
<g filter="url(#filter0_d_135_92)">
<rect x="4" width="300" height="300" rx="150" fill="white"/>
<path d="M158.352 156.176C157.584 156.176 157.072 156.005 156.816 155.664C156.56 155.408 156.347 154.939 156.176 154.256C156.091 153.915 156.048 153.616 156.048 153.36C156.048 153.019 156.048 152.72 156.048 152.464C156.048 151.269 156.304 150.331 156.816 149.648C157.328 148.965 158.395 148.667 160.016 148.752C160.101 145.851 160.997 142.096 162.704 137.488C164.411 132.795 166.672 127.675 169.488 122.128C172.389 116.581 175.632 111.077 179.216 105.616C182.8 100.069 186.469 94.992 190.224 90.384C194.064 85.776 197.776 82.1067 201.36 79.376C204.944 76.56 208.187 75.152 211.088 75.152C212.197 75.152 213.563 75.6213 215.184 76.56C216.805 77.4133 218.256 78.48 219.536 79.76C220.901 81.04 221.627 82.2773 221.712 83.472C221.712 83.5573 221.712 83.6427 221.712 83.728C221.797 83.728 221.84 83.8133 221.84 83.984C221.84 84.5813 221.627 84.88 221.2 84.88C220.091 84.2827 219.323 83.728 218.896 83.216C218.469 82.704 217.445 82.448 215.824 82.448C213.008 82.448 209.808 83.6853 206.224 86.16C202.725 88.5493 199.056 91.792 195.216 95.888C191.461 99.8987 187.749 104.336 184.08 109.2C180.496 114.064 177.211 118.971 174.224 123.92C171.237 128.784 168.805 133.349 166.928 137.616C165.051 141.797 163.941 145.211 163.6 147.856C169.829 146.917 176.144 146.32 182.544 146.064C188.944 145.723 195.301 145.552 201.616 145.552C206.139 145.552 209.637 145.765 212.112 146.192C214.587 146.533 216.293 147.003 217.232 147.6C218.256 148.197 218.768 148.752 218.768 149.264C218.768 150.203 217.189 150.672 214.032 150.672C212.581 150.672 210.789 150.629 208.656 150.544C206.608 150.373 204.475 150.288 202.256 150.288C198.587 150.288 195.472 150.373 192.912 150.544C190.352 150.629 187.707 150.843 184.976 151.184C182.245 151.525 178.747 152.037 174.48 152.72C173.797 152.805 172.603 153.061 170.896 153.488C169.275 153.829 167.525 154.213 165.648 154.64C163.856 155.067 162.235 155.408 160.784 155.664C159.419 156.005 158.608 156.176 158.352 156.176Z" fill="black"/>
</g>
<defs>
<filter id="filter0_d_135_92" x="0" y="0" width="308" height="308" filterUnits="userSpaceOnUse" color-interpolation-filters="sRGB">
<feFlood flood-opacity="0" result="BackgroundImageFix"/>
<feColorMatrix in="SourceAlpha" type="matrix" values="0 0 0 0 0 0 0 0 0 0 0 0 0 0 0 0 0 0 127 0" result="hardAlpha"/>
<feOffset dy="4"/>
<feGaussianBlur stdDeviation="2"/>
<feComposite in2="hardAlpha" operator="out"/>
<feColorMatrix type="matrix" values="0 0 0 0 0 0 0 0 0 0 0 0 0 0 0 0 0 0 0.25 0"/>
<feBlend mode="normal" in2="BackgroundImageFix" result="effect1_dropShadow_135_92"/>
<feBlend mode="normal" in="SourceGraphic" in2="effect1_dropShadow_135_92" result="shape"/>
</filter>
</defs>
</svg>
