<svg width="18" height="18" viewBox="0 0 18 18" fill="none" xmlns="http://www.w3.org/2000/svg">
<g clip-path="url(#clip0_119_6)">
<path fill-rule="evenodd" clip-rule="evenodd" d="M0 18H18V0H0V18Z" fill="black"/>
<path fill-rule="evenodd" clip-rule="evenodd" d="M8.99963 3.25C5.6865 3.25 3 5.94677 3 9.27416C3 11.9352 4.719 14.193 7.10362 14.9896C7.40362 15.0449 7.51312 14.859 7.51312 14.6993C7.51312 14.5563 7.50788 14.1775 7.50488 13.6749C5.83575 14.039 5.48362 12.8673 5.48362 12.8673C5.211 12.1716 4.81763 11.9864 4.81763 11.9864C4.27275 11.6125 4.85887 11.62 4.85887 11.62C5.46075 11.6626 5.77763 12.2409 5.77763 12.2409C6.31313 13.1614 7.182 12.8956 7.524 12.7412C7.57838 12.3519 7.73363 12.0865 7.905 11.9359C6.57263 11.7838 5.172 11.2673 5.172 8.95904C5.172 8.30132 5.40563 7.7637 5.78963 7.34241C5.72775 7.18993 5.52187 6.57776 5.84812 5.74836C5.84812 5.74836 6.35213 5.58648 7.49813 6.3658C7.977 6.23215 8.49 6.16551 9.00037 6.16288C9.51 6.16551 10.0234 6.23215 10.5026 6.3658C11.6479 5.58648 12.1508 5.74836 12.1508 5.74836C12.4781 6.57776 12.2722 7.18993 12.2104 7.34241C12.5951 7.7637 12.8272 8.30132 12.8272 8.95904C12.8272 11.2729 11.4244 11.7823 10.0879 11.9314C10.3031 12.1174 10.4951 12.4848 10.4951 13.0469C10.4951 13.8522 10.4876 14.5017 10.4876 14.6993C10.4876 14.8605 10.5956 15.048 10.9001 14.9888C13.2825 14.1907 15 11.9344 15 9.27416C15 5.94677 12.3135 3.25 8.99963 3.25Z" fill="white"/>
</g>
<defs>
<clipPath id="clip0_119_6">
<rect width="18" height="18" fill="white"/>
</clipPath>
</defs>
</svg>
