<svg width="37" height="37" viewBox="0 0 37 37" fill="none" xmlns="http://www.w3.org/2000/svg">
<g clip-path="url(#clip0_38_132)">
<path d="M37 0H0V37H37V0Z" fill="#F1DC50"/>
<path d="M18.5 16.9583C18.5 24.28 18.5 28.3911 18.5 29.2917C18.5 30.6425 17.6939 32.375 15.4167 32.375C11.7392 32.375 11.5625 29.2917 11.5625 29.2917M32.0512 20.8372C31.1261 19.2791 29.8997 18.5 28.3721 18.5C25.9869 18.5 24.6667 20.0417 24.6667 21.5833C24.6667 23.125 25.4375 24.6667 28.5338 25.4375C30.5041 25.928 32.375 26.9792 32.375 29.2917C32.375 31.6042 30.347 32.375 28.5208 32.375C26.187 32.375 24.6453 31.3472 23.8958 29.2917" stroke="#333333" stroke-width="2"/>
</g>
<defs>
<clipPath id="clip0_38_132">
<rect width="37" height="37" rx="18.5" fill="white"/>
</clipPath>
</defs>
</svg>
