<svg width="18" height="18" viewBox="0 0 18 18" fill="none" xmlns="http://www.w3.org/2000/svg">
<g clip-path="url(#clip0_119_26)">
<path fill-rule="evenodd" clip-rule="evenodd" d="M0 18H18V0H0V18Z" fill="black"/>
<path fill-rule="evenodd" clip-rule="evenodd" d="M8.99826 3V3.0001H9.00174C12.3094 3.0001 15 5.69142 15 9.00005C15 12.3086 12.3094 15 9.00174 15C7.78161 15 6.64965 14.6367 5.70111 14.0089L3.3949 14.7459L4.14251 12.5167C3.42317 11.529 3 10.3121 3 8.99995C3 5.69132 5.69056 3 8.99826 3ZM7.32321 6.04771C7.20687 5.76907 7.1187 5.75852 6.94244 5.75135C6.88243 5.74787 6.81555 5.74438 6.74141 5.74438C6.51211 5.74438 6.27237 5.81138 6.12776 5.95951C5.95151 6.13939 5.51421 6.55909 5.51421 7.4198C5.51421 8.28051 6.14189 9.11294 6.22649 9.22941C6.31466 9.34569 7.4502 11.1376 9.21332 11.8679C10.5921 12.4393 11.0012 12.3863 11.315 12.3193C11.7734 12.2206 12.3483 11.8818 12.4929 11.4728C12.6375 11.0635 12.6375 10.7143 12.5951 10.6402C12.5528 10.5662 12.4363 10.524 12.2601 10.4357C12.0838 10.3475 11.2268 9.92417 11.0646 9.86772C10.9059 9.80779 10.7543 9.829 10.6345 9.99833C10.4652 10.2347 10.2995 10.4746 10.1654 10.6191C10.0597 10.732 9.88679 10.7461 9.74228 10.6861C9.54831 10.6051 9.00532 10.4144 8.33525 9.81835C7.81684 9.35634 7.46423 8.78144 7.36203 8.60862C7.25972 8.43232 7.35148 8.32988 7.43249 8.23471C7.52066 8.12531 7.60526 8.04776 7.69343 7.94542C7.78161 7.84318 7.83097 7.79022 7.8874 7.67027C7.94741 7.55389 7.90502 7.43394 7.86272 7.34574C7.82042 7.25753 7.46782 6.39683 7.32321 6.04771Z" fill="white"/>
</g>
<defs>
<clipPath id="clip0_119_26">
<rect width="18" height="18" fill="white"/>
</clipPath>
</defs>
</svg>
